<mxfile host="app.diagrams.net" agent="Mozilla/5.0 (Windows NT 10.0; Win64; x64) AppleWebKit/537.36 (KHTML, like Gecko) Chrome/133.0.0.0 Safari/537.36" version="26.0.11">
  <diagram name="PÃ¡gina-1" id="rYHq8VYyQoGlc9UguqnX">
    <mxGraphModel grid="1" page="1" gridSize="10" guides="1" tooltips="1" connect="1" arrows="1" fold="1" pageScale="1" pageWidth="827" pageHeight="1169" math="0" shadow="0">
      <root>
        <mxCell id="0" />
        <mxCell id="1" parent="0" />
        <mxCell id="pwwWVJM_wwf5tCDXdT73-26" value="" style="edgeStyle=none;rounded=0;orthogonalLoop=1;jettySize=auto;html=1;entryX=0;entryY=0.5;entryDx=0;entryDy=0;entryPerimeter=0;" edge="1" parent="1" source="pwwWVJM_wwf5tCDXdT73-6" target="pwwWVJM_wwf5tCDXdT73-9">
          <mxGeometry relative="1" as="geometry">
            <Array as="points">
              <mxPoint x="550" y="140" />
            </Array>
          </mxGeometry>
        </mxCell>
        <mxCell id="pwwWVJM_wwf5tCDXdT73-6" value="" style="sketch=0;outlineConnect=0;fontColor=#232F3E;gradientColor=none;fillColor=#232F3D;strokeColor=none;dashed=0;verticalLabelPosition=bottom;verticalAlign=top;align=center;html=1;fontSize=12;fontStyle=0;aspect=fixed;pointerEvents=1;shape=mxgraph.aws4.internet_alt22;" vertex="1" parent="1">
          <mxGeometry x="470" y="20" width="78" height="78" as="geometry" />
        </mxCell>
        <mxCell id="pwwWVJM_wwf5tCDXdT73-27" value="" style="edgeStyle=none;rounded=0;orthogonalLoop=1;jettySize=auto;html=1;entryX=1;entryY=0.5;entryDx=0;entryDy=0;entryPerimeter=0;" edge="1" parent="1" source="pwwWVJM_wwf5tCDXdT73-6" target="pwwWVJM_wwf5tCDXdT73-7">
          <mxGeometry relative="1" as="geometry">
            <mxPoint x="460" y="110" as="sourcePoint" />
            <mxPoint x="430" y="140" as="targetPoint" />
            <Array as="points">
              <mxPoint x="490" y="140" />
            </Array>
          </mxGeometry>
        </mxCell>
        <mxCell id="pwwWVJM_wwf5tCDXdT73-7" value="" style="sketch=0;points=[[0,0,0],[0.25,0,0],[0.5,0,0],[0.75,0,0],[1,0,0],[0,1,0],[0.25,1,0],[0.5,1,0],[0.75,1,0],[1,1,0],[0,0.25,0],[0,0.5,0],[0,0.75,0],[1,0.25,0],[1,0.5,0],[1,0.75,0]];outlineConnect=0;fontColor=#232F3E;fillColor=#8C4FFF;strokeColor=#ffffff;dashed=0;verticalLabelPosition=bottom;verticalAlign=top;align=center;html=1;fontSize=12;fontStyle=0;aspect=fixed;shape=mxgraph.aws4.resourceIcon;resIcon=mxgraph.aws4.route_53;" vertex="1" parent="1">
          <mxGeometry x="386" y="120" width="78" height="78" as="geometry" />
        </mxCell>
        <mxCell id="pwwWVJM_wwf5tCDXdT73-9" value="" style="sketch=0;points=[[0,0,0],[0.25,0,0],[0.5,0,0],[0.75,0,0],[1,0,0],[0,1,0],[0.25,1,0],[0.5,1,0],[0.75,1,0],[1,1,0],[0,0.25,0],[0,0.5,0],[0,0.75,0],[1,0.25,0],[1,0.5,0],[1,0.75,0]];outlineConnect=0;fontColor=#232F3E;fillColor=#8C4FFF;strokeColor=#ffffff;dashed=0;verticalLabelPosition=bottom;verticalAlign=top;align=center;html=1;fontSize=12;fontStyle=0;aspect=fixed;shape=mxgraph.aws4.resourceIcon;resIcon=mxgraph.aws4.cloudfront;" vertex="1" parent="1">
          <mxGeometry x="610" y="120" width="78" height="78" as="geometry" />
        </mxCell>
        <mxCell id="pwwWVJM_wwf5tCDXdT73-25" value="" style="edgeStyle=none;orthogonalLoop=1;jettySize=auto;html=1;endArrow=classic;startArrow=classic;endSize=8;startSize=8;rounded=0;entryX=0.5;entryY=0;entryDx=0;entryDy=0;entryPerimeter=0;startFill=1;endFill=1;exitX=0.5;exitY=1;exitDx=0;exitDy=0;exitPerimeter=0;" edge="1" parent="1" source="pwwWVJM_wwf5tCDXdT73-9" target="pwwWVJM_wwf5tCDXdT73-8">
          <mxGeometry width="100" relative="1" as="geometry">
            <mxPoint x="680" y="200" as="sourcePoint" />
            <mxPoint x="760" y="140" as="targetPoint" />
            <Array as="points" />
          </mxGeometry>
        </mxCell>
        <mxCell id="FW9c8I9qHmgRySXw3Ds8-1" value="&lt;span style=&quot;font-size: 18px;&quot;&gt;&lt;b&gt;Internet&lt;/b&gt;&lt;/span&gt;" style="text;strokeColor=none;align=center;fillColor=none;html=1;verticalAlign=middle;whiteSpace=wrap;rounded=0;" vertex="1" parent="1">
          <mxGeometry x="370" y="10" width="150" height="30" as="geometry" />
        </mxCell>
        <mxCell id="FW9c8I9qHmgRySXw3Ds8-25" value="&lt;span style=&quot;font-size: 15px;&quot;&gt;&lt;b&gt;CloudFront&lt;/b&gt;&lt;/span&gt;" style="text;strokeColor=none;align=left;fillColor=none;html=1;verticalAlign=middle;whiteSpace=wrap;rounded=0;" vertex="1" parent="1">
          <mxGeometry x="605" y="90" width="90" height="30" as="geometry" />
        </mxCell>
        <mxCell id="pwwWVJM_wwf5tCDXdT73-15" value="Region" style="points=[[0,0],[0.25,0],[0.5,0],[0.75,0],[1,0],[1,0.25],[1,0.5],[1,0.75],[1,1],[0.75,1],[0.5,1],[0.25,1],[0,1],[0,0.75],[0,0.5],[0,0.25]];outlineConnect=0;gradientColor=none;html=1;whiteSpace=wrap;fontSize=12;fontStyle=0;container=1;pointerEvents=0;collapsible=0;recursiveResize=0;shape=mxgraph.aws4.group;grIcon=mxgraph.aws4.group_region;strokeColor=#00A4A6;fillColor=none;verticalAlign=top;align=left;spacingLeft=30;fontColor=#147EBA;dashed=1;" vertex="1" parent="1">
          <mxGeometry x="17" y="250" width="793" height="840" as="geometry" />
        </mxCell>
        <mxCell id="pwwWVJM_wwf5tCDXdT73-19" value="Public subnet" style="points=[[0,0],[0.25,0],[0.5,0],[0.75,0],[1,0],[1,0.25],[1,0.5],[1,0.75],[1,1],[0.75,1],[0.5,1],[0.25,1],[0,1],[0,0.75],[0,0.5],[0,0.25]];outlineConnect=0;gradientColor=none;html=1;whiteSpace=wrap;fontSize=12;fontStyle=0;container=1;pointerEvents=0;collapsible=0;recursiveResize=0;shape=mxgraph.aws4.group;grIcon=mxgraph.aws4.group_security_group;grStroke=0;strokeColor=#7AA116;fillColor=#F2F6E8;verticalAlign=top;align=left;spacingLeft=30;fontColor=#248814;dashed=0;" vertex="1" parent="pwwWVJM_wwf5tCDXdT73-15">
          <mxGeometry x="140" y="120" width="540" height="120" as="geometry" />
        </mxCell>
        <mxCell id="pwwWVJM_wwf5tCDXdT73-10" value="" style="sketch=0;points=[[0,0,0],[0.25,0,0],[0.5,0,0],[0.75,0,0],[1,0,0],[0,1,0],[0.25,1,0],[0.5,1,0],[0.75,1,0],[1,1,0],[0,0.25,0],[0,0.5,0],[0,0.75,0],[1,0.25,0],[1,0.5,0],[1,0.75,0]];outlineConnect=0;fontColor=#232F3E;fillColor=#8C4FFF;strokeColor=#ffffff;dashed=0;verticalLabelPosition=bottom;verticalAlign=top;align=center;html=1;fontSize=12;fontStyle=0;aspect=fixed;shape=mxgraph.aws4.resourceIcon;resIcon=mxgraph.aws4.elastic_load_balancing;" vertex="1" parent="pwwWVJM_wwf5tCDXdT73-19">
          <mxGeometry x="229" y="21" width="78" height="78" as="geometry" />
        </mxCell>
        <mxCell id="FW9c8I9qHmgRySXw3Ds8-71" value="&lt;span style=&quot;font-size: 18px;&quot;&gt;&lt;b&gt;ALB&lt;/b&gt;&lt;/span&gt;" style="text;strokeColor=none;align=center;fillColor=none;html=1;verticalAlign=middle;whiteSpace=wrap;rounded=0;" vertex="1" parent="pwwWVJM_wwf5tCDXdT73-19">
          <mxGeometry x="127.25" y="45" width="150" height="30" as="geometry" />
        </mxCell>
        <mxCell id="pwwWVJM_wwf5tCDXdT73-8" value="" style="sketch=0;points=[[0,0,0],[0.25,0,0],[0.5,0,0],[0.75,0,0],[1,0,0],[0,1,0],[0.25,1,0],[0.5,1,0],[0.75,1,0],[1,1,0],[0,0.25,0],[0,0.5,0],[0,0.75,0],[1,0.25,0],[1,0.5,0],[1,0.75,0]];outlineConnect=0;fontColor=#232F3E;fillColor=#7AA116;strokeColor=#ffffff;dashed=0;verticalLabelPosition=bottom;verticalAlign=top;align=center;html=1;fontSize=12;fontStyle=0;aspect=fixed;shape=mxgraph.aws4.resourceIcon;resIcon=mxgraph.aws4.s3;" vertex="1" parent="pwwWVJM_wwf5tCDXdT73-15">
          <mxGeometry x="593" y="26" width="78" height="78" as="geometry" />
        </mxCell>
        <mxCell id="FW9c8I9qHmgRySXw3Ds8-20" value="&lt;b style=&quot;&quot;&gt;&lt;font style=&quot;font-size: 15px;&quot;&gt;Bucket S3&lt;/font&gt;&lt;/b&gt;&lt;div&gt;&lt;b style=&quot;background-color: transparent; color: light-dark(rgb(0, 0, 0), rgb(255, 255, 255));&quot;&gt;&lt;font style=&quot;font-size: 15px;&quot;&gt;Int.-Tiering&lt;/font&gt;&lt;/b&gt;&lt;/div&gt;" style="text;strokeColor=none;align=left;fillColor=none;html=1;verticalAlign=middle;whiteSpace=wrap;rounded=0;" vertex="1" parent="pwwWVJM_wwf5tCDXdT73-15">
          <mxGeometry x="677" y="50" width="84" height="30" as="geometry" />
        </mxCell>
        <mxCell id="FW9c8I9qHmgRySXw3Ds8-39" value="" style="shape=flexArrow;endArrow=classic;startArrow=classic;html=1;rounded=0;fillColor=#dae8fc;strokeColor=#6c8ebf;" edge="1" parent="pwwWVJM_wwf5tCDXdT73-15">
          <mxGeometry width="100" height="100" relative="1" as="geometry">
            <mxPoint x="493" y="250" as="sourcePoint" />
            <mxPoint x="592.9999999999998" y="65" as="targetPoint" />
            <Array as="points">
              <mxPoint x="493" y="210" />
              <mxPoint x="493" y="170" />
              <mxPoint x="493" y="65" />
            </Array>
          </mxGeometry>
        </mxCell>
        <mxCell id="FW9c8I9qHmgRySXw3Ds8-72" value="" style="outlineConnect=0;dashed=0;verticalLabelPosition=bottom;verticalAlign=top;align=center;html=1;shape=mxgraph.aws3.ami;fillColor=#F58534;gradientColor=none;" vertex="1" parent="pwwWVJM_wwf5tCDXdT73-15">
          <mxGeometry x="710" y="270" width="60" height="63" as="geometry" />
        </mxCell>
        <mxCell id="FW9c8I9qHmgRySXw3Ds8-73" value="&lt;b&gt;&lt;font style=&quot;font-size: 15px;&quot;&gt;AMIs&lt;/font&gt;&lt;/b&gt;" style="text;whiteSpace=wrap;html=1;" vertex="1" parent="pwwWVJM_wwf5tCDXdT73-15">
          <mxGeometry x="723" y="333" width="60" height="30" as="geometry" />
        </mxCell>
        <mxCell id="FW9c8I9qHmgRySXw3Ds8-75" value="" style="image;sketch=0;aspect=fixed;html=1;points=[];align=center;fontSize=12;image=img/lib/mscae/DNS_Private_Zones.svg;" vertex="1" parent="pwwWVJM_wwf5tCDXdT73-15">
          <mxGeometry x="701" y="120" width="68" height="68" as="geometry" />
        </mxCell>
        <mxCell id="FW9c8I9qHmgRySXw3Ds8-76" value="&lt;b&gt;&lt;font style=&quot;font-size: 15px;&quot;&gt;DNS&lt;/font&gt;&lt;/b&gt;&lt;div&gt;&lt;b&gt;&lt;font style=&quot;font-size: 15px;&quot;&gt;Private Zone&lt;/font&gt;&lt;/b&gt;&lt;/div&gt;" style="text;whiteSpace=wrap;html=1;" vertex="1" parent="pwwWVJM_wwf5tCDXdT73-15">
          <mxGeometry x="689" y="174" width="102" height="46" as="geometry" />
        </mxCell>
        <mxCell id="FW9c8I9qHmgRySXw3Ds8-77" style="edgeStyle=none;rounded=0;orthogonalLoop=1;jettySize=auto;html=1;exitX=0.25;exitY=1;exitDx=0;exitDy=0;" edge="1" parent="pwwWVJM_wwf5tCDXdT73-15" source="FW9c8I9qHmgRySXw3Ds8-76" target="FW9c8I9qHmgRySXw3Ds8-76">
          <mxGeometry relative="1" as="geometry" />
        </mxCell>
        <mxCell id="pwwWVJM_wwf5tCDXdT73-20" value="Private subnet" style="points=[[0,0],[0.25,0],[0.5,0],[0.75,0],[1,0],[1,0.25],[1,0.5],[1,0.75],[1,1],[0.75,1],[0.5,1],[0.25,1],[0,1],[0,0.75],[0,0.5],[0,0.25]];outlineConnect=0;gradientColor=none;html=1;whiteSpace=wrap;fontSize=12;fontStyle=0;container=1;pointerEvents=0;collapsible=0;recursiveResize=0;shape=mxgraph.aws4.group;grIcon=mxgraph.aws4.group_security_group;grStroke=0;strokeColor=#00A4A6;fillColor=#E6F6F7;verticalAlign=top;align=left;spacingLeft=30;fontColor=#147EBA;dashed=0;" vertex="1" parent="pwwWVJM_wwf5tCDXdT73-15">
          <mxGeometry x="131" y="250" width="540" height="580" as="geometry" />
        </mxCell>
        <mxCell id="pwwWVJM_wwf5tCDXdT73-11" value="" style="sketch=0;points=[[0,0,0],[0.25,0,0],[0.5,0,0],[0.75,0,0],[1,0,0],[0,1,0],[0.25,1,0],[0.5,1,0],[0.75,1,0],[1,1,0],[0,0.25,0],[0,0.5,0],[0,0.75,0],[1,0.25,0],[1,0.5,0],[1,0.75,0]];outlineConnect=0;fontColor=#232F3E;fillColor=#ED7100;strokeColor=#ffffff;dashed=0;verticalLabelPosition=bottom;verticalAlign=top;align=center;html=1;fontSize=12;fontStyle=0;aspect=fixed;shape=mxgraph.aws4.resourceIcon;resIcon=mxgraph.aws4.auto_scaling2;" vertex="1" parent="pwwWVJM_wwf5tCDXdT73-20">
          <mxGeometry x="322" y="60" width="78" height="78" as="geometry" />
        </mxCell>
        <mxCell id="erLyG1V6asY8YflQRMMO-1" value="" style="sketch=0;points=[[0,0,0],[0.25,0,0],[0.5,0,0],[0.75,0,0],[1,0,0],[0,1,0],[0.25,1,0],[0.5,1,0],[0.75,1,0],[1,1,0],[0,0.25,0],[0,0.5,0],[0,0.75,0],[1,0.25,0],[1,0.5,0],[1,0.75,0]];outlineConnect=0;fontColor=#232F3E;fillColor=#ED7100;strokeColor=#ffffff;dashed=0;verticalLabelPosition=bottom;verticalAlign=top;align=center;html=1;fontSize=12;fontStyle=0;aspect=fixed;shape=mxgraph.aws4.resourceIcon;resIcon=mxgraph.aws4.ecs;" vertex="1" parent="pwwWVJM_wwf5tCDXdT73-20">
          <mxGeometry x="82" y="55" width="58" height="58" as="geometry" />
        </mxCell>
        <mxCell id="erLyG1V6asY8YflQRMMO-3" value="" style="sketch=0;points=[[0,0,0],[0.25,0,0],[0.5,0,0],[0.75,0,0],[1,0,0],[0,1,0],[0.25,1,0],[0.5,1,0],[0.75,1,0],[1,1,0],[0,0.25,0],[0,0.5,0],[0,0.75,0],[1,0.25,0],[1,0.5,0],[1,0.75,0]];outlineConnect=0;fontColor=#232F3E;fillColor=#ED7100;strokeColor=#ffffff;dashed=0;verticalLabelPosition=bottom;verticalAlign=top;align=center;html=1;fontSize=12;fontStyle=0;aspect=fixed;shape=mxgraph.aws4.resourceIcon;resIcon=mxgraph.aws4.fargate;" vertex="1" parent="pwwWVJM_wwf5tCDXdT73-20">
          <mxGeometry x="140" y="55" width="58" height="58" as="geometry" />
        </mxCell>
        <mxCell id="erLyG1V6asY8YflQRMMO-2" value="" style="sketch=0;outlineConnect=0;fontColor=#232F3E;gradientColor=none;fillColor=#ED7100;strokeColor=none;dashed=0;verticalLabelPosition=bottom;verticalAlign=top;align=center;html=1;fontSize=12;fontStyle=0;aspect=fixed;pointerEvents=1;shape=mxgraph.aws4.ecs_service;" vertex="1" parent="pwwWVJM_wwf5tCDXdT73-20">
          <mxGeometry x="91.5" y="125" width="39" height="48" as="geometry" />
        </mxCell>
        <mxCell id="FW9c8I9qHmgRySXw3Ds8-3" value="&lt;b style=&quot;&quot;&gt;&lt;font style=&quot;font-size: 15px;&quot;&gt;ECS Fargate&lt;/font&gt;&lt;/b&gt;" style="text;strokeColor=none;align=center;fillColor=none;html=1;verticalAlign=middle;whiteSpace=wrap;rounded=0;" vertex="1" parent="pwwWVJM_wwf5tCDXdT73-20">
          <mxGeometry x="73" y="30" width="113" height="30" as="geometry" />
        </mxCell>
        <mxCell id="FW9c8I9qHmgRySXw3Ds8-4" value="Tasks&lt;div&gt;Definitions&lt;/div&gt;" style="text;html=1;align=center;verticalAlign=middle;resizable=0;points=[];autosize=1;strokeColor=none;fillColor=none;" vertex="1" parent="pwwWVJM_wwf5tCDXdT73-20">
          <mxGeometry x="71" y="170" width="80" height="40" as="geometry" />
        </mxCell>
        <mxCell id="FW9c8I9qHmgRySXw3Ds8-66" style="edgeStyle=none;rounded=0;orthogonalLoop=1;jettySize=auto;html=1;" edge="1" parent="pwwWVJM_wwf5tCDXdT73-20">
          <mxGeometry relative="1" as="geometry">
            <mxPoint x="392" y="190" as="sourcePoint" />
            <mxPoint x="345.75" y="448.1986660314435" as="targetPoint" />
            <Array as="points">
              <mxPoint x="503" y="247" />
              <mxPoint x="503" y="337" />
              <mxPoint x="503" y="447" />
            </Array>
          </mxGeometry>
        </mxCell>
        <mxCell id="FW9c8I9qHmgRySXw3Ds8-10" value="&lt;font style=&quot;font-size: 15px;&quot;&gt;&lt;b style=&quot;&quot;&gt;ASG&amp;nbsp;&lt;/b&gt;&lt;b style=&quot;background-color: transparent; color: light-dark(rgb(0, 0, 0), rgb(255, 255, 255));&quot;&gt;Web Drupal&lt;/b&gt;&lt;/font&gt;" style="text;strokeColor=none;align=center;fillColor=none;html=1;verticalAlign=middle;whiteSpace=wrap;rounded=0;" vertex="1" parent="pwwWVJM_wwf5tCDXdT73-20">
          <mxGeometry x="312" y="150" width="109.5" height="30" as="geometry" />
        </mxCell>
        <mxCell id="FW9c8I9qHmgRySXw3Ds8-51" value="" style="group" connectable="0" vertex="1" parent="pwwWVJM_wwf5tCDXdT73-20">
          <mxGeometry x="133" y="432" width="335.25" height="140" as="geometry" />
        </mxCell>
        <mxCell id="FW9c8I9qHmgRySXw3Ds8-52" value="" style="whiteSpace=wrap;html=1;fillColor=none;dashed=1;" vertex="1" parent="FW9c8I9qHmgRySXw3Ds8-51">
          <mxGeometry y="1" width="335.25" height="139" as="geometry" />
        </mxCell>
        <mxCell id="FW9c8I9qHmgRySXw3Ds8-53" value="" style="sketch=0;points=[[0,0,0],[0.25,0,0],[0.5,0,0],[0.75,0,0],[1,0,0],[0,1,0],[0.25,1,0],[0.5,1,0],[0.75,1,0],[1,1,0],[0,0.25,0],[0,0.5,0],[0,0.75,0],[1,0.25,0],[1,0.5,0],[1,0.75,0]];outlineConnect=0;fontColor=#232F3E;fillColor=#C925D1;strokeColor=#ffffff;dashed=0;verticalLabelPosition=bottom;verticalAlign=top;align=center;html=1;fontSize=12;fontStyle=0;aspect=fixed;shape=mxgraph.aws4.resourceIcon;resIcon=mxgraph.aws4.aurora;" vertex="1" parent="FW9c8I9qHmgRySXw3Ds8-51">
          <mxGeometry x="8.25" y="40" width="78" height="78" as="geometry" />
        </mxCell>
        <mxCell id="FW9c8I9qHmgRySXw3Ds8-54" value="" style="sketch=0;points=[[0,0,0],[0.25,0,0],[0.5,0,0],[0.75,0,0],[1,0,0],[0,1,0],[0.25,1,0],[0.5,1,0],[0.75,1,0],[1,1,0],[0,0.25,0],[0,0.5,0],[0,0.75,0],[1,0.25,0],[1,0.5,0],[1,0.75,0]];outlineConnect=0;fontColor=#232F3E;fillColor=#C925D1;strokeColor=#ffffff;dashed=0;verticalLabelPosition=bottom;verticalAlign=top;align=center;html=1;fontSize=12;fontStyle=0;aspect=fixed;shape=mxgraph.aws4.resourceIcon;resIcon=mxgraph.aws4.aurora;" vertex="1" parent="FW9c8I9qHmgRySXw3Ds8-51">
          <mxGeometry x="250" y="40" width="78" height="78" as="geometry" />
        </mxCell>
        <mxCell id="FW9c8I9qHmgRySXw3Ds8-55" value="&lt;b&gt;&lt;font style=&quot;font-size: 15px;&quot;&gt;RDS PostgreSQL&amp;nbsp;&lt;/font&gt;&lt;/b&gt;&lt;b style=&quot;background-color: transparent; color: light-dark(rgb(0, 0, 0), rgb(255, 255, 255));&quot;&gt;&lt;font style=&quot;font-size: 15px;&quot;&gt;Multi-AZ&lt;/font&gt;&lt;/b&gt;" style="text;whiteSpace=wrap;html=1;" vertex="1" parent="FW9c8I9qHmgRySXw3Ds8-51">
          <mxGeometry x="8.25" width="210.25" height="40" as="geometry" />
        </mxCell>
        <mxCell id="FW9c8I9qHmgRySXw3Ds8-67" value="&lt;b&gt;StandByDB&lt;/b&gt;" style="text;whiteSpace=wrap;html=1;" vertex="1" parent="FW9c8I9qHmgRySXw3Ds8-51">
          <mxGeometry x="251" y="114" width="77" height="30" as="geometry" />
        </mxCell>
        <mxCell id="FW9c8I9qHmgRySXw3Ds8-56" value="" style="group" connectable="0" vertex="1" parent="pwwWVJM_wwf5tCDXdT73-20">
          <mxGeometry x="127.25" y="275" width="335.25" height="140" as="geometry" />
        </mxCell>
        <mxCell id="FW9c8I9qHmgRySXw3Ds8-57" value="" style="whiteSpace=wrap;html=1;fillColor=none;dashed=1;" vertex="1" parent="FW9c8I9qHmgRySXw3Ds8-56">
          <mxGeometry width="335.25" height="140" as="geometry" />
        </mxCell>
        <mxCell id="FW9c8I9qHmgRySXw3Ds8-58" value="" style="sketch=0;points=[[0,0,0],[0.25,0,0],[0.5,0,0],[0.75,0,0],[1,0,0],[0,1,0],[0.25,1,0],[0.5,1,0],[0.75,1,0],[1,1,0],[0,0.25,0],[0,0.5,0],[0,0.75,0],[1,0.25,0],[1,0.5,0],[1,0.75,0]];outlineConnect=0;fontColor=#232F3E;fillColor=#C925D1;strokeColor=#ffffff;dashed=0;verticalLabelPosition=bottom;verticalAlign=top;align=center;html=1;fontSize=12;fontStyle=0;aspect=fixed;shape=mxgraph.aws4.resourceIcon;resIcon=mxgraph.aws4.aurora;" vertex="1" parent="FW9c8I9qHmgRySXw3Ds8-56">
          <mxGeometry x="8.25" y="40" width="78" height="78" as="geometry" />
        </mxCell>
        <mxCell id="FW9c8I9qHmgRySXw3Ds8-59" value="" style="sketch=0;points=[[0,0,0],[0.25,0,0],[0.5,0,0],[0.75,0,0],[1,0,0],[0,1,0],[0.25,1,0],[0.5,1,0],[0.75,1,0],[1,1,0],[0,0.25,0],[0,0.5,0],[0,0.75,0],[1,0.25,0],[1,0.5,0],[1,0.75,0]];outlineConnect=0;fontColor=#232F3E;fillColor=#C925D1;strokeColor=#ffffff;dashed=0;verticalLabelPosition=bottom;verticalAlign=top;align=center;html=1;fontSize=12;fontStyle=0;aspect=fixed;shape=mxgraph.aws4.resourceIcon;resIcon=mxgraph.aws4.aurora;" vertex="1" parent="FW9c8I9qHmgRySXw3Ds8-56">
          <mxGeometry x="250" y="40" width="78" height="78" as="geometry" />
        </mxCell>
        <mxCell id="FW9c8I9qHmgRySXw3Ds8-60" value="&lt;b&gt;&lt;font style=&quot;font-size: 15px;&quot;&gt;Redis Replication Group&amp;nbsp;&lt;/font&gt;&lt;/b&gt;&lt;b style=&quot;background-color: transparent; color: light-dark(rgb(0, 0, 0), rgb(255, 255, 255));&quot;&gt;&lt;font style=&quot;font-size: 15px;&quot;&gt;Multi-AZ&lt;/font&gt;&lt;/b&gt;" style="text;whiteSpace=wrap;html=1;" vertex="1" parent="FW9c8I9qHmgRySXw3Ds8-56">
          <mxGeometry x="8.25" width="241.75" height="40" as="geometry" />
        </mxCell>
        <mxCell id="FW9c8I9qHmgRySXw3Ds8-61" value="" style="sketch=0;points=[[0,0,0],[0.25,0,0],[0.5,0,0],[0.75,0,0],[1,0,0],[0,1,0],[0.25,1,0],[0.5,1,0],[0.75,1,0],[1,1,0],[0,0.25,0],[0,0.5,0],[0,0.75,0],[1,0.25,0],[1,0.5,0],[1,0.75,0]];outlineConnect=0;fontColor=#232F3E;fillColor=#C925D1;strokeColor=#ffffff;dashed=0;verticalLabelPosition=bottom;verticalAlign=top;align=center;html=1;fontSize=12;fontStyle=0;aspect=fixed;shape=mxgraph.aws4.resourceIcon;resIcon=mxgraph.aws4.elasticache;" vertex="1" parent="FW9c8I9qHmgRySXw3Ds8-56">
          <mxGeometry x="8.25" y="40" width="78" height="78" as="geometry" />
        </mxCell>
        <mxCell id="FW9c8I9qHmgRySXw3Ds8-62" value="" style="sketch=0;points=[[0,0,0],[0.25,0,0],[0.5,0,0],[0.75,0,0],[1,0,0],[0,1,0],[0.25,1,0],[0.5,1,0],[0.75,1,0],[1,1,0],[0,0.25,0],[0,0.5,0],[0,0.75,0],[1,0.25,0],[1,0.5,0],[1,0.75,0]];outlineConnect=0;fontColor=#232F3E;fillColor=#C925D1;strokeColor=#ffffff;dashed=0;verticalLabelPosition=bottom;verticalAlign=top;align=center;html=1;fontSize=12;fontStyle=0;aspect=fixed;shape=mxgraph.aws4.resourceIcon;resIcon=mxgraph.aws4.elasticache;" vertex="1" parent="FW9c8I9qHmgRySXw3Ds8-56">
          <mxGeometry x="250" y="40" width="78" height="78" as="geometry" />
        </mxCell>
        <mxCell id="FW9c8I9qHmgRySXw3Ds8-63" value="&lt;b&gt;Read / Write&lt;/b&gt;" style="text;html=1;align=center;verticalAlign=middle;resizable=0;points=[];autosize=1;strokeColor=none;fillColor=none;" vertex="1" parent="FW9c8I9qHmgRySXw3Ds8-56">
          <mxGeometry y="113" width="90" height="30" as="geometry" />
        </mxCell>
        <mxCell id="FW9c8I9qHmgRySXw3Ds8-64" value="&lt;b&gt;Read Only&lt;/b&gt;" style="text;html=1;align=center;verticalAlign=middle;resizable=0;points=[];autosize=1;strokeColor=none;fillColor=none;" vertex="1" parent="FW9c8I9qHmgRySXw3Ds8-56">
          <mxGeometry x="248" y="113" width="80" height="30" as="geometry" />
        </mxCell>
        <mxCell id="FW9c8I9qHmgRySXw3Ds8-65" style="edgeStyle=none;rounded=0;orthogonalLoop=1;jettySize=auto;html=1;" edge="1" parent="pwwWVJM_wwf5tCDXdT73-20" target="FW9c8I9qHmgRySXw3Ds8-60">
          <mxGeometry relative="1" as="geometry">
            <mxPoint x="362" y="190" as="sourcePoint" />
            <mxPoint x="343" y="270" as="targetPoint" />
          </mxGeometry>
        </mxCell>
        <mxCell id="lccpiMzBJPkLIp2vXgzi-1" value="" style="points=[];aspect=fixed;html=1;align=center;shadow=0;dashed=0;fillColor=#FF6A00;strokeColor=none;shape=mxgraph.alibaba_cloud.memcache;" vertex="1" parent="pwwWVJM_wwf5tCDXdT73-20">
          <mxGeometry x="172.00000000000006" y="124.70000000000005" width="50.099999999999994" height="45.3" as="geometry" />
        </mxCell>
        <mxCell id="lccpiMzBJPkLIp2vXgzi-2" value="Memcached" style="text;html=1;align=center;verticalAlign=middle;resizable=0;points=[];autosize=1;strokeColor=none;fillColor=none;" vertex="1" parent="pwwWVJM_wwf5tCDXdT73-20">
          <mxGeometry x="152.05" y="160" width="90" height="30" as="geometry" />
        </mxCell>
        <mxCell id="lccpiMzBJPkLIp2vXgzi-3" style="edgeStyle=orthogonalEdgeStyle;rounded=0;orthogonalLoop=1;jettySize=auto;html=1;exitX=0;exitY=0.5;exitDx=0;exitDy=0;exitPerimeter=0;entryX=1.062;entryY=0.461;entryDx=0;entryDy=0;entryPerimeter=0;" edge="1" parent="pwwWVJM_wwf5tCDXdT73-20" source="pwwWVJM_wwf5tCDXdT73-11" target="lccpiMzBJPkLIp2vXgzi-1">
          <mxGeometry relative="1" as="geometry" />
        </mxCell>
        <mxCell id="lccpiMzBJPkLIp2vXgzi-5" value="" style="whiteSpace=wrap;html=1;fillColor=none;dashed=1;" vertex="1" parent="pwwWVJM_wwf5tCDXdT73-20">
          <mxGeometry x="70" y="30" width="190" height="190" as="geometry" />
        </mxCell>
        <mxCell id="FW9c8I9qHmgRySXw3Ds8-40" style="edgeStyle=none;rounded=0;orthogonalLoop=1;jettySize=auto;html=1;exitX=0.5;exitY=1;exitDx=0;exitDy=0;exitPerimeter=0;entryX=0.5;entryY=0;entryDx=0;entryDy=0;entryPerimeter=0;" edge="1" parent="pwwWVJM_wwf5tCDXdT73-15" source="pwwWVJM_wwf5tCDXdT73-10" target="pwwWVJM_wwf5tCDXdT73-11">
          <mxGeometry relative="1" as="geometry">
            <mxPoint x="543" y="330" as="targetPoint" />
          </mxGeometry>
        </mxCell>
        <mxCell id="pwwWVJM_wwf5tCDXdT73-30" value="" style="edgeStyle=none;rounded=0;orthogonalLoop=1;jettySize=auto;html=1;endArrow=none;endFill=1;startFill=1;startArrow=classic;" edge="1" parent="1" source="pwwWVJM_wwf5tCDXdT73-10" target="pwwWVJM_wwf5tCDXdT73-7">
          <mxGeometry relative="1" as="geometry">
            <mxPoint x="412" y="282" as="targetPoint" />
          </mxGeometry>
        </mxCell>
        <mxCell id="FW9c8I9qHmgRySXw3Ds8-70" value="&lt;b style=&quot;&quot;&gt;&lt;font face=&quot;Helvetica&quot;&gt;&lt;font style=&quot;font-size: 18px;&quot;&gt;*&lt;/font&gt;&lt;span style=&quot;font-size: 16px;&quot;&gt;.&lt;/span&gt;&lt;font style=&quot;font-size: 18px;&quot;&gt;jmbmcloud.com&lt;/font&gt;&lt;/font&gt;&lt;/b&gt;" style="text;strokeColor=none;align=center;fillColor=none;html=1;verticalAlign=middle;whiteSpace=wrap;rounded=0;" vertex="1" parent="1">
          <mxGeometry x="220" y="144" width="150" height="30" as="geometry" />
        </mxCell>
      </root>
    </mxGraphModel>
  </diagram>
</mxfile>
